<svg width="24" height="24" xmlns="http://www.w3.org/2000/svg">
 <title/>

 <g>
  <title>background</title>
  <rect fill="none" id="canvas_background" height="402" width="582" y="-1" x="-1"/>
 </g>
 <g>
  <title>Layer 1</title>
  <path id="svg_1" fill="#6495ed" d="m17,22l-12,0a3,3 0 0 1 -3,-3l0,-12a3,3 0 0 1 3,-3l4,0a1,1 0 0 1 0,2l-4,0a1,1 0 0 0 -1,1l0,12a1,1 0 0 0 1,1l12,0a1,1 0 0 0 1,-1l0,-4a1,1 0 0 1 2,0l0,4a3,3 0 0 1 -3,3z"/>
  <path stroke="#6495ed" id="svg_2" fill="none" d="m14.6,5.87l-4.95,5a0.41,0.41 0 0 0 -0.13,0.23l-1,3.82a0.48,0.48 0 0 0 0.13,0.48a0.47,0.47 0 0 0 0.35,0.1a0.32,0.32 0 0 0 0.13,0l3.82,-1a0.41,0.41 0 0 0 0.23,-0.13l4.95,-4.97l-3.53,-3.53z"/>
  <path stroke="#6495ed" id="svg_3" fill="none" d="m21,4.45l-1.45,-1.45a1.52,1.52 0 0 0 -2.13,0l-1.42,1.45l3.55,3.55l1.45,-1.42a1.52,1.52 0 0 0 0,-2.13z"/>
 </g>
</svg>